<?xml version="1.0" encoding="utf-8"?>
<!-- Generator: Adobe Illustrator 19.1.0, SVG Export Plug-In . SVG Version: 6.00 Build 0)  -->
<!DOCTYPE svg PUBLIC "-//W3C//DTD SVG 1.1//EN" "http://www.w3.org/Graphics/SVG/1.1/DTD/svg11.dtd">
<svg version="1.1" id="Layer_1" xmlns="http://www.w3.org/2000/svg" xmlns:xlink="http://www.w3.org/1999/xlink" x="0px" y="0px"
	 viewBox="0 0 99.8 15" enable-background="new 0 0 99.8 15" xml:space="preserve">
<g>
	<polygon fill="#3E3E45" points="0,12.8 1.5,12.8 1.5,6.9 7.8,12.9 7.8,3.6 6.3,3.6 6.3,9.5 0,3.5 	"/>
	<rect x="16.8" y="0.5" fill="#3E3E45" width="1.5" height="9.2"/>
	<g>
		<path fill="#3E3E45" d="M25.9,8.2c0-2.6,2.1-4.7,4.7-4.7c1.3,0,2.4,0.5,3.2,1.3l-1,1.1c-0.6-0.6-1.4-1-2.3-1
			c-1.8,0-3.2,1.4-3.2,3.3c0,1.8,1.4,3.3,3.2,3.3c0.9,0,1.7-0.4,2.3-1l1,1.1c-0.8,0.9-2,1.3-3.2,1.3C28,12.9,25.9,10.9,25.9,8.2"/>
		<path fill="#3E3E45" d="M52.1,4.5c-0.1-1.8-1.5-3.2-3.3-3.1c-1.8,0.1-3.1,1.6-3,3.4c0.1,1.8,1.5,3.2,3.3,3.1
			C50.9,7.8,52.2,6.3,52.1,4.5 M44.3,4.9c-0.1-2.6,1.8-4.8,4.4-4.9c2.6-0.1,4.8,1.8,4.9,4.4c0.1,2.6-1.8,4.8-4.4,4.9
			C46.6,9.5,44.4,7.6,44.3,4.9"/>
		<path fill="#3E3E45" d="M66.4,11.1c1,0,1.5-0.6,1.5-1.3c0-0.7-0.5-1.3-1.5-1.3h-2v2.6H66.4z M66,7.2c0.9,0,1.4-0.5,1.4-1.2
			c0-0.7-0.5-1.2-1.4-1.2h-1.5v2.5H66z M62.9,3.3h3.2c1.7,0,2.7,1.1,2.7,2.5c0,0.8-0.3,1.4-0.9,1.8c0.9,0.4,1.5,1.1,1.5,2.2
			c0,1.6-1.3,2.6-3,2.6h-3.5V3.3z"/>
	</g>
	<path fill="#3E3E45" d="M80.7,3.4l1.3,2.7h-2.5L80.7,3.4z M76.4,9.6H78l1-2h3.8l1,2h1.6l-4.5-9.3L76.4,9.6z"/>
	<g>
		<path fill="#3E3E45" d="M95.7,6.6c1,0,1.5-0.5,1.5-1.3c0-0.8-0.5-1.3-1.5-1.3h-1.3v2.6H95.7z M95.3,7.9h-0.9v3.9h-1.5V2.6h3
			c1.7,0,2.9,1.1,2.9,2.6c0,1.2-0.7,2.1-1.9,2.5l2.9,4H98L95.3,7.9z"/>
	</g>
	<polygon fill="#3E3E45" points="39.9,13.4 39.9,14.8 44.3,11.8 49.3,15 53.7,12.1 53.7,10.7 49.3,13.6 44.3,10.5 	"/>
</g>
</svg>
